<svg xmlns="http://www.w3.org/2000/svg" version="1.2" width="400" height="400" viewBox="0 0 310 310"><style>*{stroke:#000;fill:#333}</style><path d="m181.845 96.998 8.554-19.662s10.78-21.166 1.924-35.65c-2.947-4.816-6.533-7.007-12.021-11.629-9.876-8.323-16.413-11.125-21.619-24.354-5.488 13.117-12.079 15.779-22.13 23.892-5.581 4.507-9.215 6.621-12.264 11.375-9.16 14.295 1.175 35.683 1.175 35.683l8.141 19.837m85.097 34.943 19.953-7.855s22.591-7.343 26.57-23.846c1.32-5.492.334-9.577-.278-16.726-1.098-12.87-3.738-19.472 1.935-32.509-13.156 5.396-19.699 2.618-32.546 1.247-7.132-.761-11.195-1.835-16.713-.628-16.583 3.63-24.398 26.061-24.398 26.061l-8.276 19.782m35.469 84.884 19.661 8.555s21.166 10.781 35.65 1.926c4.815-2.951 7.006-6.537 11.628-12.023 8.325-9.876 11.126-16.414 24.355-21.621-13.117-5.486-15.781-12.077-23.894-22.129-4.504-5.581-6.621-9.214-11.376-12.261-14.295-9.161-35.679 1.175-35.679 1.175l-19.842 8.137m-34.936 85.1 7.854 19.951s7.341 22.592 23.846 26.569c5.493 1.321 9.576.333 16.726-.277 12.868-1.098 19.473-3.74 32.51 1.933-5.398-13.156-2.616-19.697-1.248-32.544.762-7.132 1.834-11.196.626-16.714-3.63-16.584-26.061-24.399-26.061-24.399l-19.783-8.272m-84.883 35.468-8.552 19.662s-10.782 21.166-1.929 35.648c2.95 4.818 6.539 7.007 12.024 11.632 9.872 8.322 16.413 11.122 21.619 24.353 5.488-13.118 12.079-15.779 22.13-23.894 5.581-4.506 9.215-6.621 12.264-11.377 9.16-14.292-1.175-35.681-1.175-35.681l-8.139-19.836m-85.099-34.942-19.953 7.854s-22.591 7.344-26.57 23.846c-1.32 5.493-.333 9.578.278 16.727 1.098 12.869 3.738 19.472-1.935 32.508 13.156-5.395 19.697-2.617 32.546-1.247 7.132.761 11.195 1.834 16.716.626 16.584-3.63 24.396-26.062 24.396-26.062l8.273-19.78m-35.467-84.882-19.661-8.555s-21.166-10.783-35.65-1.926c-4.815 2.951-7.005 6.536-11.628 12.024-8.325 9.874-11.126 16.412-24.355 21.62 13.117 5.484 15.777 12.076 23.894 22.129 4.504 5.581 6.621 9.215 11.376 12.263 14.295 9.16 35.682-1.175 35.682-1.175l19.839-8.139m34.936-85.1-7.853-19.952s-7.346-22.593-23.847-26.569c-5.493-1.321-9.579-.333-16.729.276-12.864 1.097-19.469 3.741-32.506-1.933 5.395 13.154 2.616 19.697 1.248 32.545-.762 7.131-1.834 11.196-.631 16.713 3.633 16.585 26.065 24.401 26.065 24.401l19.779 8.271" style="stroke-width:4.28970003"/><path d="m157.374 116.743-.111-25.911s1.445-18.411-9.225-26.179c-3.551-2.583-6.777-3.088-12.096-4.777-9.569-3.039-15.099-3.106-22.774-11.06-.04 11.054-3.982 14.928-8.786 23.745-2.669 4.897-4.648 7.498-5.424 11.819-2.326 12.992 11.46 25.28 11.46 25.28l18.869 19.095m64.399-7.487 11.993-11.578s14.043-11.996 11.991-25.033c-.687-4.337-2.61-6.978-5.176-11.93-4.618-8.918-8.48-12.875-8.283-23.926-7.844 7.79-13.372 7.741-23.005 10.578-5.351 1.577-8.589 2.014-12.191 4.521-10.832 7.542-9.771 25.979-9.771 25.979l-.158 26.846m50.831 40.24 16.667.295s18.41 1.447 26.179-9.224c2.581-3.552 3.088-6.779 4.775-12.096 3.042-9.57 3.107-15.1 11.062-22.775-11.054-.038-14.928-3.979-23.746-8.787-4.896-2.667-7.497-4.648-11.819-5.422-12.993-2.328-25.277 11.459-25.277 11.459l-11.829 11.747m.221 71.523 11.577 11.994s11.993 14.043 25.033 11.989c4.338-.686 6.977-2.61 11.93-5.175 8.916-4.617 12.874-8.48 23.926-8.284-7.791-7.843-7.738-13.37-10.579-23.005-1.575-5.35-2.014-8.588-4.522-12.19-7.541-10.832-25.978-9.772-25.978-9.772l-16.671-.057m-50.416 50.73-.292 16.667s-1.448 18.411 9.222 26.179c3.551 2.584 6.78 3.088 12.095 4.777 9.569 3.041 15.101 3.105 22.775 11.061.039-11.056 3.982-14.928 8.786-23.746 2.668-4.897 4.648-7.498 5.423-11.82 2.327-12.99-11.46-25.279-11.46-25.279l-11.746-11.826m-71.521.219-11.995 11.578s-14.041 11.996-11.99 25.032c.687 4.339 2.611 6.979 5.176 11.932 4.619 8.917 8.48 12.874 8.284 23.925 7.843-7.789 13.369-7.738 23.004-10.578 5.35-1.576 8.588-2.014 12.193-4.523 10.833-7.541 9.769-25.978 9.769-25.978l.059-16.669m-50.731-50.416-16.667-.295s-18.412-1.448-26.181 9.223c-2.58 3.553-3.087 6.779-4.774 12.097-3.042 9.569-3.109 15.099-11.062 22.774 11.054.037 14.926 3.979 23.746 8.786 4.896 2.668 7.497 4.648 11.818 5.423 12.993 2.326 25.28-11.459 25.28-11.459l11.827-11.748m6.582-65.249-18.38-18.267S97.693 97.693 84.658 99.746c-4.339.686-6.979 2.611-11.934 5.176-8.913 4.615-12.871 8.479-23.924 8.283 7.788 7.843 7.74 13.369 10.58 23.004 1.574 5.349 2.014 8.587 4.521 12.193 7.542 10.833 25.979 9.771 25.979 9.771l16.669.056" style="stroke-width:3"/><path d="m172.823 121.062 5.219-11.994s6.576-12.912 1.174-21.748c-1.799-2.938-3.986-4.274-7.334-7.095-6.025-5.077-10.014-6.786-13.189-14.856-3.348 8.002-7.369 9.626-13.5 14.575-3.404 2.749-5.621 4.039-7.48 6.939-5.588 8.72.717 21.768.717 21.768l4.965 12.102m51.912 21.316 12.172-4.792s13.781-4.479 16.209-14.547c.805-3.351.203-5.843-.17-10.203-.67-7.852-2.281-11.879 1.18-19.832-8.025 3.292-12.018 1.597-19.854.761-4.352-.464-6.83-1.119-10.195-.383-10.117 2.215-14.885 15.898-14.885 15.898l-5.049 12.067m21.639 51.783 11.994 5.219s12.912 6.576 21.748 1.174c2.938-1.799 4.273-3.986 7.094-7.334 5.078-6.025 6.787-10.014 14.857-13.189-8.002-3.347-9.627-7.368-14.576-13.5-2.748-3.404-4.039-5.621-6.939-7.479-8.721-5.589-21.766.717-21.766.717l-12.104 4.964m-21.314 51.913 4.791 12.172s4.479 13.781 14.547 16.209c3.352.805 5.842.203 10.203-.17 7.85-.67 11.879-2.281 19.832 1.18-3.293-8.025-1.596-12.018-.762-19.854.465-4.352 1.119-6.83.383-10.195-2.215-10.117-15.898-14.885-15.898-14.885l-12.068-5.047m-51.782 21.637-5.217 11.994s-6.578 12.912-1.176 21.748c1.799 2.939 3.988 4.273 7.334 7.096 6.023 5.076 10.014 6.785 13.189 14.855 3.348-8.002 7.369-9.625 13.5-14.576 3.404-2.748 5.621-4.039 7.48-6.939 5.588-8.719-.717-21.768-.717-21.768l-4.965-12.1m-51.912-21.316-12.172 4.791s-13.781 4.48-16.209 14.547c-.805 3.352-.203 5.844.17 10.203.67 7.852 2.281 11.879-1.18 19.832 8.025-3.291 12.016-1.596 19.854-.762 4.352.465 6.83 1.119 10.197.383 10.117-2.215 14.883-15.898 14.883-15.898l5.047-12.066m-21.637-51.783-11.994-5.219s-12.912-6.578-21.748-1.175c-2.938 1.8-4.273 3.987-7.094 7.335-5.078 6.023-6.787 10.012-14.857 13.188 8.002 3.348 9.625 7.367 14.576 13.5 2.748 3.404 4.039 5.621 6.939 7.48 8.721 5.588 21.768-.717 21.768-.717l12.102-4.965m21.314-51.912-4.791-12.172s-4.48-13.782-14.547-16.208c-3.352-.806-5.844-.203-10.205.169-7.848.669-11.877 2.281-19.83-1.18 3.291 8.024 1.596 12.016.762 19.854-.465 4.351-1.119 6.83-.385 10.196 2.215 10.117 15.9 14.885 15.9 14.885l12.066 5.046" style="stroke-width:3"/><path d="m157.374 116.743.2-11.295s1.134-14.446-7.238-20.542c-2.786-2.026-5.318-2.423-9.491-3.748-7.509-2.385-11.848-2.438-17.87-8.678-.031 8.674-3.125 11.713-6.895 18.632-2.094 3.843-3.647 5.883-4.256 9.274-1.825 10.194 8.992 19.836 8.992 19.836l8.471 8.534m56.867.574 9.411-9.085s11.019-9.413 9.409-19.643c-.539-3.403-2.049-5.476-4.062-9.361-3.624-6.998-6.654-10.102-6.5-18.774-6.154 6.112-10.492 6.074-18.051 8.3-4.198 1.237-6.739 1.58-9.566 3.548-8.499 5.918-7.71 32.409-7.71 32.409m39.804 40.616 13.078.231s14.446 1.135 20.542-7.237c2.025-2.787 2.423-5.319 3.747-9.491 2.387-7.509 2.438-11.848 8.68-17.871-8.674-.03-11.714-3.123-18.633-6.895-3.842-2.093-5.883-3.647-9.274-4.254-10.195-1.826-19.834 8.992-19.834 8.992l-9.282 9.218m.174 56.119 9.084 9.412s9.411 11.019 19.643 9.407c3.404-.538 5.475-2.048 9.361-4.061 6.996-3.623 10.102-6.654 18.773-6.5-6.113-6.154-6.072-10.492-8.301-18.051-1.236-4.197-1.58-6.738-3.549-9.566-5.917-8.499-20.384-7.668-20.384-7.668l-13.081-.044m-39.558 39.807-.229 13.078s-1.136 14.447 7.236 20.542c2.786 2.027 5.32 2.423 9.49 3.749 7.509 2.386 11.849 2.437 17.871 8.678.03-8.674 3.125-11.713 6.895-18.633 2.093-3.842 3.647-5.883 4.255-9.274 1.826-10.193-8.992-19.835-8.992-19.835l-9.217-9.279m-56.121.171-9.412 9.086s-11.018 9.412-9.408 19.641c.539 3.404 2.049 5.477 4.062 9.363 3.624 6.996 6.654 10.102 6.5 18.772 6.154-6.112 10.49-6.072 18.051-8.3 4.197-1.237 6.738-1.58 9.567-3.549 8.5-5.918 7.665-20.385 7.665-20.385l.046-13.08m-39.806-39.558-13.078-.232s-14.447-1.136-20.543 7.238c-2.024 2.787-2.422 5.318-3.746 9.49-2.387 7.509-2.439 11.848-8.68 17.871 8.674.029 11.712 3.123 18.633 6.895 3.842 2.093 5.883 3.646 9.273 4.255 10.195 1.825 19.837-8.992 19.837-8.992l9.28-9.218m-1.434-57.38s-17.238-19.17-27.467-17.559c-3.404.538-5.477 2.048-9.363 4.061-6.994 3.622-10.1 6.653-18.772 6.499 6.111 6.154 6.073 10.49 8.302 18.051 1.235 4.197 1.58 6.738 3.547 9.567 5.918 8.5 20.386 7.667 20.386 7.667l13.079.044" style="stroke-width:3"/><path d="M223.367 159.616c0 35.346-28.653 64-64 64-35.346 0-64-28.654-64-64s28.654-64 64-64 64 28.655 64 64z" style="stroke-width:3"/></svg>
